<svg width="60" height="57" viewBox="0 0 60 57" fill="none" xmlns="http://www.w3.org/2000/svg">
<path d="M13.5035 55.2552L1.88317 46.0165L1.37216 45.6231C1.287 45.5576 1.13139 45.3241 1.19032 44.915L4.01639 20.2281C4.04095 20.0576 4.18132 19.6798 4.54641 19.5324L18.8697 14.848C19.13 14.7671 19.6353 14.746 19.5737 15.3089L14.8692 54.8945C14.8186 55.3208 14.4746 55.9899 13.5035 55.2552Z" stroke="white" stroke-width="2"/>
<path d="M23.7892 40.8236C23.4649 40.8607 22.8457 40.7303 22.9635 39.9121L27.3812 1.92351C27.4277 1.73207 27.649 1.41551 28.1622 1.68081L40.8627 8.37494C41.055 8.4851 41.4248 8.8077 41.3659 9.21681L37.9539 37.8026C37.9297 37.9517 37.7903 38.274 37.4261 38.3702L23.7892 40.8236Z" stroke="white" stroke-width="2"/>
<path d="M44.3774 36.9535C44.1394 36.9921 43.6785 36.9413 43.7392 36.4297L46.1399 17.5669C46.1864 17.3755 46.395 17.0459 46.8574 17.259L58.4656 23.4855C58.6366 23.5739 58.9641 23.8531 58.9051 24.2622L57.7656 33.9189C57.7407 34.1107 57.5609 34.5177 57.0414 34.6112L44.3774 36.9535Z" stroke="white" stroke-width="2"/>
</svg>
