<!DOCTYPE svg PUBLIC "-//W3C//DTD SVG 1.1//EN" "http://www.w3.org/Graphics/SVG/1.1/DTD/svg11.dtd">
<svg xmlns="http://www.w3.org/2000/svg" viewBox="0 0 233 233">
<path d="M18 39.5V46h24v144H18v12h40V33H18v6.5m161 78V202h39V190.063l-11.75-.281-11.75-.282-.257-71.75-.256-71.75H218V33h-39v84.5M77 79.8c0 4.623 16.832 51.307 27.757 76.987l5.654 13.287 7.849-.287 7.85-.287 3.955-8.889c11.357-25.528 26.323-66.5 28.469-77.941l.689-3.67h-8.143c-5.65 0-8.256.383-8.513 1.25-.204.688-2.631 8.926-5.393 18.307-8.386 28.481-17.708 53.067-19.125 50.442-2.687-4.976-12.843-33.525-17.813-50.072L94.4 79.5l-8.7-.289c-4.785-.159-8.7.106-8.7.589" fill-rule="evenodd"/>
</svg>