<!DOCTYPE svg PUBLIC "-//W3C//DTD SVG 1.1//EN" "http://www.w3.org/Graphics/SVG/1.1/DTD/svg11.dtd">
<svg xmlns="http://www.w3.org/2000/svg" viewBox="0 0 198 198">
<path d="M59.791 20.988C48.264 24.463 42.995 37.558 45.3 57c1.662 14.017 2.138 12.753-5.998 15.935C.63 88.057 1.205 115.222 40.5 129.609c6.806 2.492 6.464 1.355 4.752 15.803-4.531 38.259 22.02 48.532 52.429 20.285l3.18-2.955 5.82 5.004c5.305 4.563 13.52 10.254 14.799 10.254.286 0 .52-3.078.52-6.84v-6.839l-6-4.659c-6.795-5.277-6.868-5.463-3.654-9.335 1.29-1.555 3.99-4.999 6-7.654l3.654-4.826v-22.343l-3.227 5.248-3.228 5.248-14.522-.012-14.523-.013-2.124-3.281c-1.168-1.804-4.456-7.418-7.306-12.474l-5.183-9.194 3.718-6.763c2.044-3.72 5.284-9.351 7.198-12.513L86.284 76h29.32l4.448 7.427c4.284 7.153 4.53 7.375 6.663 6 1.544-.995 5.261-1.427 12.271-1.427 10.018 0 10.061-.011 11.238-2.75.649-1.513 1.267-2.89 1.372-3.06.106-.171 3.727 1.064 8.048 2.745 6.771 2.634 9.158 3.056 17.28 3.06l9.425.005-2.367-2.519c-3.648-3.883-11.443-8.536-20.37-12.159l-8.112-3.291.5-4.766c1.468-13.993.575-28.681-2.055-33.787-8.175-15.872-27.229-14.55-47.954 3.327L101 39.111l-4.991-4.306c-13.26-11.438-26.876-16.633-36.218-13.817m.834 13.874c-2.333 2.578-3.626 7.626-3.619 14.131.006 5.505 1.535 16.881 2.383 17.729.391.391 12.143-1.076 18.221-2.274 1.911-.377 12.814-12.782 14.038-15.974.641-1.668-9.059-9.371-16.206-12.871-6.361-3.114-12.396-3.416-14.817-.741m66.875-.005c-3.942 1.835-15.942 10.431-17.038 12.204-.54.873 11.239 16.918 12.45 16.959 1.328.045 14.781 2.028 17.238 2.541 2.592.542 2.676.398 3.857-6.603 3.665-21.726-2.762-31.499-16.507-25.101M98.174 60.055 95.848 63h10.304l-2.326-2.945c-1.279-1.619-2.551-2.944-2.826-2.944-.275 0-1.547 1.325-2.826 2.944m33.83 17.868c.002.317.973 2.152 2.158 4.077l2.154 3.5 1.246-3c.684-1.65 1.069-3.286.854-3.635-.51-.827-6.417-1.695-6.412-.942m-67.819.941c-1.083.687-1.075 1.419.045 4.165l1.36 3.332 2.205-3.738C69.008 80.568 70 78.686 70 78.443c0-.77-4.443-.448-5.815.421M41.81 84.908c-21.148 9.023-24.398 17.731-10.053 26.936 4.307 2.764 18.199 8.667 18.698 7.945.11-.159.791-1.864 1.514-3.789s2.412-6.032 3.754-9.127l2.44-5.628-3.795-9.622c-4.295-10.89-3.62-10.528-12.558-6.715m52.595 1.996c-10.309 4.682-11.977 17.732-3.272 25.597 10.796 9.754 28.725-1.214 24.93-15.251-2.728-10.092-12.227-14.629-21.658-10.346M130.4 95.4l-3.4 3.4v78.4l3.4 3.4 3.4 3.4h46.4l3.4-3.4 3.4-3.4V98.8l-3.4-3.4-3.4-3.4h-46.4l-3.4 3.4m7.241 7.615L135 106.153v64.001l2.923 2.923 2.923 2.923h16.495c9.073 0 17.224-.28 18.114-.621 4.169-1.6 4.545-4.761 4.545-38.219 0-40.524 2.338-36.553-21.769-36.972l-17.95-.311-2.64 3.138m12.833 2.027c-1.298 2.1 1.202 3.068 7.13 2.762 4.439-.229 5.896-.675 5.896-1.804 0-1.884-11.912-2.76-13.026-.958m-86.388 14.142c-1.242 3.561-.316 4.774 3.664 4.801 2.75.018 2.751-.021.151-4.428-2.546-4.315-2.444-4.305-3.815-.373m-5.791 19.566c-1.743 8.219-.97 23.874 1.33 26.928 4.564 6.06 16.149 2.848 28.795-7.983l3.92-3.358-6.332-8.168c-3.482-4.493-6.821-8.185-7.42-8.204-.598-.019-4.688-.685-9.088-1.48-10.674-1.929-10.299-2.004-11.205 2.265m39.879 3.195c1.279 1.619 2.551 2.944 2.826 2.944.275 0 1.547-1.325 2.826-2.944l2.326-2.945H95.848l2.326 2.945m57.272 25.142c-1.03 1.668 1.287 3.58 2.667 2.2 1.154-1.154.432-3.287-1.113-3.287-.485 0-1.184.489-1.554 1.087" fill-rule="evenodd"/>
</svg>