<!DOCTYPE svg PUBLIC "-//W3C//DTD SVG 1.1//EN" "http://www.w3.org/Graphics/SVG/1.1/DTD/svg11.dtd">
<svg xmlns="http://www.w3.org/2000/svg" viewBox="0 0 360 360">
<path d="M248 71.814c-29.407 7.687-29.188 32.042.415 46.139 35.615 16.96 83.151 5.43 76.68-18.598C319.614 78.998 277.741 64.04 248 71.814m4.26 5.225c-21.748 3.91-24.432 17.734-5.518 28.416 30.479 17.213 81.504 9.859 69.242-9.98-7.842-12.689-41.513-22.43-63.724-18.436m-136.652 2.027c-72.266 10.024-76.515 65.77-7.108 93.24 53.392 21.132 116.406 11.624 131.06-19.775l3.252-6.968.741 4.943c.462 3.078.287 6.644-.464 9.45-.832 3.111-.877 4.615-.147 4.858.582.194 1.065 1.778 1.073 3.519.009 1.742.413 3.794.899 4.561.96 1.518 1.565-5.055 2.83-30.756l.756-15.362-5.724-2.889c-3.573-1.804-9.039-6.179-14.541-11.639-15.98-15.858-38.757-26.498-67.973-31.752-10.761-1.935-35.337-2.722-44.654-1.43m153.601 8.918c-14.26 3.379-5.844 15.228 11.878 16.723 20.738 1.75 21.158-12.828.479-16.619-6.61-1.212-7.642-1.221-12.357-.104M113.5 89.071c-40.433 5.549-54.092 26.65-30.945 47.805 46.123 42.154 165.523 34.438 145.094-9.376-11.311-24.258-70.997-44.352-114.149-38.429m22.627 24.361c-23.881 7.809-2.297 29.473 29.441 29.551 29.446.072 31.172-19.455 2.531-28.645-6.682-2.145-26.47-2.705-31.972-.906m-89.57 13.818c-2.085 5.051-10.321 46.997-11.604 59.101-2.233 21.049 2.237 40.89 12.812 56.87 3.379 5.106 3.553 4.543 1.764-5.714-3.779-21.67.149-56.356 8.453-74.657 2.899-6.389 2.525-10.234-1.879-19.315-2.143-4.419-4.465-10.623-5.159-13.785-1.438-6.551-2.472-7.141-4.387-2.5m269.693.241c-1.788.777-3.25 2.039-3.25 2.804 0 .766-1.799 18.675-3.998 39.799-2.199 21.123-3.981 39.756-3.96 41.406l.039 3 3.032-3.5c5.89-6.798 6.033-7.472 9.513-45 4.231-45.628 4.396-41.018-1.376-38.509m-65.639 5.683c-.303 2.929-1.021 17.026-1.596 31.326-.574 14.3-1.32 29.938-1.658 34.75-1.225 17.44 1.349 8.214 7.536-27 3.454-19.662 6.516-36.957 6.805-38.431.478-2.445.155-2.781-3.649-3.806-2.296-.618-4.784-1.358-5.53-1.644-1-.384-1.501.878-1.908 4.805m52.563-1.654c-2.929.714-5.542 1.514-5.805 1.778-.575.575 4.489 64.893 5.162 65.566.962.962 1.235-1.065 4.358-32.364 1.757-17.6 3.409-33.012 3.671-34.25.545-2.563.25-2.592-7.386-.73m-39.564 15.667c-.376 8.422-1.107 24.538-1.625 35.813-1.177 25.654-1.211 46.005-.072 44 1.302-2.293 16.087-86.435 16.087-91.554 0-1.27-1.541-1.744-9.603-2.956l-4.103-.616-.684 15.313m23.14-13.448-5.75.361v36.617c0 20.139.256 36.36.569 36.047.681-.681 12.431-68.273 12.431-71.511 0-1.239-.337-2.168-.75-2.064-.413.104-3.337.352-6.5.55m7.25 17.1c0 .461-2.918 17.868-6.484 38.682-3.566 20.815-6.283 38.045-6.038 38.291.634.633 14.558-6.141 17.354-8.443l2.332-1.92-2.588-31.975c-1.424-17.586-2.586-32.761-2.582-33.724.003-.963-.444-1.75-.994-1.75s-1 .377-1 .839m-231.808 7.867c-7.155 13.878-13.137 47.862-11.729 66.638.908 12.112 1.904 12.228 3.509.406 3.276-24.134 11.778-42.488 23.265-50.224l4.977-3.351-4.501-3.338c-2.476-1.835-6.773-5.269-9.549-7.631-4.541-3.863-5.139-4.114-5.972-2.5M276.769 161c-.402 1.375-2.52 13.075-4.706 26-2.186 12.925-4.886 28.196-6 33.935-1.114 5.74-1.853 10.609-1.642 10.82.783.783 12.77-2.09 13.18-3.159.234-.609.307-16.631.162-35.602-.144-18.972-.592-33.369-.994-31.994m-18.119 5c-.798 2.976-11.65 64.395-11.65 65.935 0 .624 2.275 1.065 5.5 1.065h5.5v-4.25c0-2.338.491-17.145 1.091-32.905 1.075-28.217.973-35.121-.441-29.845m-24.373 7.025c-3.98 3.757-9.025 7.207-14 9.574-4.277 2.035-7.965 3.858-8.195 4.052-.23.194 1.039 2.382 2.82 4.862 9.953 13.859 15.467 35.714 13.309 52.748-.978 7.722-.674 8.598 1.863 5.372 3.131-3.981 7.026-15.975 10.597-32.633 2.061-9.615 2.696-47.056.829-48.874-.656-.639-3.14 1.046-7.223 4.899M82.443 177.75c-10.179 24.098-12.148 60.927-4.369 81.717 2.464 6.587 3.926 6.346 3.926-.648 0-28.657 12.268-60.691 26.764-69.884 4.933-3.129 5.055-2.965-4.868-6.529-4.068-1.461-9.971-3.95-13.117-5.531-7.056-3.545-6.442-3.61-8.336.875m-9.127 4.509c-10.417 11.015-18.301 37.186-18.313 60.791-.002 3.053-.473 6.02-1.047 6.594-1.351 1.351 9.077 11.203 18.609 17.583 7.981 5.341 8.375 5.146 5.007-2.468-8.555-19.345-9.209-44.086-1.929-73.05 1.922-7.648 3.308-14.091 3.081-14.318-.227-.227-2.661 1.963-5.408 4.868m40.246 9.781c-9.215 20.535-10.176 54.461-2.356 83.21 1.159 4.262 2.473 7.75 2.919 7.75 2.289 0 13.096-44.063 15.819-64.5 1.242-9.322 1.628-26.766.627-28.385-.379-.613-1.464-1.115-2.412-1.115s-4.043-.602-6.878-1.337l-5.154-1.337-2.565 5.714m92.938-4.056c-1.1.413-6.093 1.537-11.095 2.5l-9.096 1.75 1.776 7.633c4.045 17.386 5.387 30.154 5.401 51.383.008 11.413.157 20.75.332 20.75.175 0 2.318-4.28 4.763-9.511 14.577-31.193 18.909-58.137 11.588-72.076-1.333-2.539-2.071-3.027-3.669-2.429m-72.5 2.405c0 .235 1.781 6.656 3.957 14.269C144.51 227.579 149 252.814 149 266.724c0 7.826 1.36 8.031 3.489.526 9.593-33.828 17.885-57.005 26.295-73.5.211-.412-4.107-.75-9.595-.75-9.465 0-28.079-1.429-32.939-2.529-1.238-.28-2.25-.317-2.25-.082m-29.302 4.861c-11.303 11.306-18.692 35.317-20.517 66.67l-.723 12.421 8.021 3.671c10.17 4.655 18.303 7.54 19.076 6.767.33-.33-.313-3.903-1.429-7.94-4.334-15.684-5.547-24.822-5.556-41.839-.008-17.841 2.138-30.805 7.08-42.75 1.064-2.574-1.845-1.108-5.952 3m77.616-2.088c-3.624 4.503-11.873 24.587-18.622 45.338C159.603 251.073 149 287.952 149 289.6c0 2.185 26.132-3.707 34.733-7.831 5.449-2.612 5.524-2.818 7.308-20.091 1.371-13.277.058-32.594-3.538-52.062-2.964-16.05-3.682-18.326-5.189-16.454m33.399 17.613c-.793 16.611-5.689 33.281-16.515 56.225-4.685 9.927-4.368 10.36 4.013 5.479 11.561-6.733 19.704-13.537 20.861-17.432 1.699-5.718 2.283-23.848 1.027-31.89-1.103-7.07-6.382-22.596-8.028-23.613-.439-.272-1.05 4.783-1.358 11.231m-82.16-2.139c-2.036 19.258-7.946 47.753-14.15 68.223-1.394 4.597-2.316 8.924-2.051 9.616.58 1.512 13.204 3.525 22.109 3.525h6.38l.715-6.681c1.536-14.342-1.627-41.544-7.705-66.251-3.672-14.931-4.476-16.211-5.298-8.432M241.2 225.81c-1.525 7.385-1.506 8.19.193 8.19 1.925 0 2.607-2.244 2.607-8.582 0-7.083-1.293-6.902-2.8.392" fill-rule="evenodd"/>
</svg>